<svg width="88" height="33" viewBox="0 0 88 33" fill="none" xmlns="http://www.w3.org/2000/svg">
<rect y="0.857941" width="88" height="32" rx="16" fill="#FCFCFC" fill-opacity="0.3"/>
<path fill-rule="evenodd" clip-rule="evenodd" d="M25 10.5246C25 10.1564 25.2985 9.85794 25.6667 9.85794H28.3333C28.8638 9.85794 29.3725 10.0687 29.7475 10.4437C30.1226 10.8188 30.3333 11.3275 30.3333 11.8579V21.1913C30.3333 21.7217 30.1226 22.2304 29.7475 22.6055C29.3725 22.9806 28.8638 23.1913 28.3333 23.1913H25.6667C25.2985 23.1913 25 22.8928 25 22.5246C25 22.1564 25.2985 21.8579 25.6667 21.8579H28.3333C28.5101 21.8579 28.6797 21.7877 28.8047 21.6627C28.9298 21.5377 29 21.3681 29 21.1913V11.8579C29 11.6811 28.9298 11.5116 28.8047 11.3865C28.6797 11.2615 28.5101 11.1913 28.3333 11.1913H25.6667C25.2985 11.1913 25 10.8928 25 10.5246ZM21.8619 12.7199C22.1222 12.4595 22.5443 12.4595 22.8047 12.7199L26.1338 16.049C26.1509 16.0658 26.1671 16.0835 26.1824 16.1021C26.2142 16.1409 26.2411 16.1825 26.2628 16.2259C26.3079 16.3157 26.3333 16.4172 26.3333 16.5246C26.3333 16.6332 26.3074 16.7358 26.2613 16.8264C26.241 16.8664 26.2164 16.9047 26.1876 16.9407C26.1708 16.9617 26.1527 16.9817 26.1335 17.0005L22.8047 20.3293C22.5443 20.5897 22.1222 20.5897 21.8619 20.3293C21.6015 20.069 21.6015 19.6469 21.8619 19.3865L24.0571 17.1913H17.6667C17.2985 17.1913 17 16.8928 17 16.5246C17 16.1564 17.2985 15.8579 17.6667 15.8579H24.0572L21.8619 13.6627C21.6015 13.4023 21.6015 12.9802 21.8619 12.7199Z" fill="#2D3440"/>
<path d="M39.233 21.8579V11.6761H42.7926C43.5019 11.6761 44.0869 11.7988 44.5476 12.044C45.0083 12.286 45.3513 12.6124 45.5767 13.0234C45.8021 13.4311 45.9148 13.8835 45.9148 14.3807C45.9148 14.8182 45.8369 15.1794 45.6811 15.4645C45.5286 15.7495 45.3265 15.9749 45.0746 16.1406C44.826 16.3063 44.5559 16.429 44.2642 16.5085V16.6079C44.5758 16.6278 44.889 16.7372 45.2038 16.9361C45.5187 17.1349 45.7822 17.42 45.9943 17.7912C46.2064 18.1624 46.3125 18.6165 46.3125 19.1534C46.3125 19.6638 46.1965 20.1229 45.9645 20.5305C45.7325 20.9382 45.3662 21.2613 44.8658 21.5C44.3653 21.7386 43.714 21.8579 42.9119 21.8579H39.233ZM40.4659 20.7642H42.9119C43.7173 20.7642 44.2891 20.6084 44.6271 20.2969C44.9685 19.982 45.1392 19.6008 45.1392 19.1534C45.1392 18.8087 45.0514 18.4905 44.8757 18.1988C44.7 17.9039 44.4498 17.6685 44.125 17.4929C43.8002 17.3139 43.4157 17.2244 42.9716 17.2244H40.4659V20.7642ZM40.4659 16.1506H42.7528C43.1241 16.1506 43.4588 16.0776 43.7571 15.9318C44.0587 15.786 44.2973 15.5805 44.473 15.3153C44.652 15.0502 44.7415 14.7386 44.7415 14.3807C44.7415 13.9332 44.5857 13.5537 44.2741 13.2422C43.9626 12.9273 43.4688 12.7699 42.7926 12.7699H40.4659V16.1506ZM49.0543 14.2216L50.8839 17.3437L52.7134 14.2216H54.0657L51.5998 18.0398L54.0657 21.8579H52.7134L50.8839 18.8949L49.0543 21.8579H47.7021L50.1282 18.0398L47.7021 14.2216H49.0543ZM58.5277 22.017C57.8383 22.017 57.2334 21.853 56.7131 21.5248C56.196 21.1967 55.7917 20.7377 55.5 20.1477C55.2116 19.5578 55.0675 18.8684 55.0675 18.0795C55.0675 17.2841 55.2116 16.5897 55.5 15.9964C55.7917 15.4032 56.196 14.9425 56.7131 14.6143C57.2334 14.2862 57.8383 14.1221 58.5277 14.1221C59.2171 14.1221 59.8203 14.2862 60.3374 14.6143C60.8577 14.9425 61.2621 15.4032 61.5504 15.9964C61.8421 16.5897 61.9879 17.2841 61.9879 18.0795C61.9879 18.8684 61.8421 19.5578 61.5504 20.1477C61.2621 20.7377 60.8577 21.1967 60.3374 21.5248C59.8203 21.853 59.2171 22.017 58.5277 22.017ZM58.5277 20.9631C59.0514 20.9631 59.4822 20.8288 59.8203 20.5604C60.1584 20.2919 60.4086 19.9389 60.571 19.5014C60.7334 19.0639 60.8146 18.5899 60.8146 18.0795C60.8146 17.5691 60.7334 17.0935 60.571 16.6527C60.4086 16.2119 60.1584 15.8556 59.8203 15.5838C59.4822 15.312 59.0514 15.1761 58.5277 15.1761C58.004 15.1761 57.5732 15.312 57.2351 15.5838C56.897 15.8556 56.6468 16.2119 56.4844 16.6527C56.322 17.0935 56.2408 17.5691 56.2408 18.0795C56.2408 18.5899 56.322 19.0639 56.4844 19.5014C56.6468 19.9389 56.897 20.2919 57.2351 20.5604C57.5732 20.8288 58.004 20.9631 58.5277 20.9631ZM62.9636 24.0454V20.7642H63.6C63.7557 20.6018 63.89 20.4261 64.0027 20.2372C64.1154 20.0483 64.2131 19.8246 64.296 19.566C64.3822 19.3042 64.4551 18.986 64.5147 18.6115C64.5744 18.2337 64.6274 17.7779 64.6738 17.2443L64.9324 14.2216H69.7846V20.7642H70.9579V24.0454H69.7846V21.8579H64.1369V24.0454H62.9636ZM64.9324 20.7642H68.6113V15.3153H66.0261L65.8272 17.2443C65.7444 18.0431 65.6416 18.7408 65.519 19.3373C65.3964 19.9339 65.2008 20.4096 64.9324 20.7642Z" fill="#2D3440"/>
</svg>
